<?xml version="1.0" encoding="UTF-8" standalone="no"?>
<!DOCTYPE svg PUBLIC "-//W3C//DTD SVG 1.1//EN"
 "http://www.w3.org/Graphics/SVG/1.1/DTD/svg11.dtd">
<!-- Generated by graphviz version 2.38.0 (20140413.2041)
 -->
<!-- Title: G Pages: 1 -->
<svg width="204pt" height="293pt"
 viewBox="0.00 0.00 204.15 293.00" xmlns="http://www.w3.org/2000/svg" xmlns:xlink="http://www.w3.org/1999/xlink">
<g id="graph0" class="graph" transform="scale(1 1) rotate(0) translate(4 289)">
<title>G</title>
<polygon fill="white" stroke="none" points="-4,4 -4,-289 200.15,-289 200.15,4 -4,4"/>
<!-- process_type -->
<g id="node1" class="node"><title>process_type</title>
<ellipse fill="pink" stroke="red" cx="81.9708" cy="-267" rx="58.4615" ry="18"/>
<text text-anchor="middle" x="81.9708" y="-263.9" font-family="Acme-Regular.ttf" font-size="12.00">process_type</text>
</g>
<!-- injury_type -->
<g id="node2" class="node"><title>injury_type</title>
<ellipse fill="pink" stroke="red" cx="71.9708" cy="-101" rx="50.4563" ry="18"/>
<text text-anchor="middle" x="71.9708" y="-97.9" font-family="Acme-Regular.ttf" font-size="12.00">injury_type</text>
</g>
<!-- process_type&#45;&gt;injury_type -->
<g id="edge1" class="edge"><title>process_type&#45;&gt;injury_type</title>
<path fill="none" stroke="red" d="M53.6943,-251.104C36.1157,-240.127 15.0118,-223.402 4.97081,-202 -1.82493,-187.515 -1.32095,-180.711 4.97081,-166 12.2521,-148.975 26.5316,-134.321 40.0437,-123.348"/>
<polygon fill="red" stroke="red" points="42.4981,-125.875 48.2882,-117.003 38.2288,-120.328 42.4981,-125.875"/>
<text text-anchor="middle" x="18.9708" y="-181.5" font-family="Play-Regular.ttf" font-size="10.00">8.343</text>
</g>
<!-- absenteeism_level -->
<g id="node3" class="node"><title>absenteeism_level</title>
<ellipse fill="pink" stroke="red" cx="117.971" cy="-18" rx="78.3595" ry="18"/>
<text text-anchor="middle" x="117.971" y="-14.9" font-family="Acme-Regular.ttf" font-size="12.00">absenteeism_level</text>
</g>
<!-- process_type&#45;&gt;absenteeism_level -->
<g id="edge2" class="edge"><title>process_type&#45;&gt;absenteeism_level</title>
<path fill="none" stroke="red" d="M99.2405,-249.601C110.574,-237.622 124.46,-220.329 130.971,-202 152.996,-139.994 149.721,-118.127 134.971,-54 134.304,-51.0992 133.362,-48.1601 132.261,-45.2818"/>
<polygon fill="red" stroke="red" points="135.336,-43.5829 128.068,-35.8743 128.943,-46.433 135.336,-43.5829"/>
<text text-anchor="middle" x="162.971" y="-140" font-family="Play-Regular.ttf" font-size="10.00">0.0001</text>
</g>
<!-- uses_op -->
<g id="node4" class="node"><title>uses_op</title>
<ellipse fill="pink" stroke="red" cx="81.9708" cy="-184" rx="40.0263" ry="18"/>
<text text-anchor="middle" x="81.9708" y="-180.9" font-family="Acme-Regular.ttf" font-size="12.00">uses_op</text>
</g>
<!-- process_type&#45;&gt;uses_op -->
<g id="edge3" class="edge"><title>process_type&#45;&gt;uses_op</title>
<path fill="none" stroke="red" d="M81.9708,-248.822C81.9708,-238.19 81.9708,-224.306 81.9708,-212.204"/>
<polygon fill="red" stroke="red" points="85.4709,-212.153 81.9708,-202.153 78.4709,-212.153 85.4709,-212.153"/>
<text text-anchor="middle" x="89.9708" y="-223" font-family="Play-Regular.ttf" font-size="10.00">8.9</text>
</g>
<!-- injury_type&#45;&gt;absenteeism_level -->
<g id="edge4" class="edge"><title>injury_type&#45;&gt;absenteeism_level</title>
<path fill="none" stroke="red" d="M81.502,-83.2167C87.7512,-72.2128 96.0486,-57.6021 103.15,-45.0976"/>
<polygon fill="red" stroke="red" points="106.399,-46.4645 108.294,-36.0404 100.312,-43.0077 106.399,-46.4645"/>
<text text-anchor="middle" x="113.971" y="-57" font-family="Play-Regular.ttf" font-size="10.00">5.4123</text>
</g>
<!-- uses_op&#45;&gt;injury_type -->
<g id="edge5" class="edge"><title>uses_op&#45;&gt;injury_type</title>
<path fill="none" stroke="red" d="M79.8501,-165.822C78.5375,-155.19 76.8234,-141.306 75.3293,-129.204"/>
<polygon fill="red" stroke="red" points="78.7875,-128.649 74.0885,-119.153 71.8402,-129.507 78.7875,-128.649"/>
<text text-anchor="middle" x="87.9708" y="-140" font-family="Play-Regular.ttf" font-size="10.00">9.43</text>
</g>
</g>
</svg>
