<?xml version="1.0" encoding="UTF-8" standalone="no"?>
<!DOCTYPE svg PUBLIC "-//W3C//DTD SVG 1.1//EN"
 "http://www.w3.org/Graphics/SVG/1.1/DTD/svg11.dtd">
<!-- Generated by graphviz version 2.38.0 (20140413.2041)
 -->
<!-- Title: G Pages: 1 -->
<svg width="204pt" height="293pt"
 viewBox="0.00 0.00 204.10 293.00" xmlns="http://www.w3.org/2000/svg" xmlns:xlink="http://www.w3.org/1999/xlink">
<g id="graph0" class="graph" transform="scale(1 1) rotate(0) translate(4 289)">
<title>G</title>
<polygon fill="white" stroke="none" points="-4,4 -4,-289 200.103,-289 200.103,4 -4,4"/>
<!-- process_type -->
<g id="node1" class="node"><title>process_type</title>
<ellipse fill="pink" stroke="red" cx="79.9238" cy="-267" rx="58.4615" ry="18"/>
<text text-anchor="middle" x="79.9238" y="-263.9" font-family="Acme-Regular.ttf" font-size="12.00">process_type</text>
</g>
<!-- injury_type -->
<g id="node2" class="node"><title>injury_type</title>
<ellipse fill="pink" stroke="red" cx="71.9238" cy="-101" rx="50.4563" ry="18"/>
<text text-anchor="middle" x="71.9238" y="-97.9" font-family="Acme-Regular.ttf" font-size="12.00">injury_type</text>
</g>
<!-- process_type&#45;&gt;injury_type -->
<g id="edge1" class="edge"><title>process_type&#45;&gt;injury_type</title>
<path fill="none" stroke="red" d="M52.3623,-250.93C35.2321,-239.88 14.6745,-223.139 4.92379,-202 -1.77791,-187.471 -1.36797,-180.711 4.92379,-166 12.2051,-148.975 26.4846,-134.321 39.9966,-123.348"/>
<polygon fill="red" stroke="red" points="42.451,-125.875 48.2412,-117.003 38.1817,-120.328 42.451,-125.875"/>
<text text-anchor="middle" x="18.9238" y="-181.5" font-family="Acme-Regular.ttf" font-size="10.00">8.343</text>
</g>
<!-- absenteeism_level -->
<g id="node3" class="node"><title>absenteeism_level</title>
<ellipse fill="pink" stroke="red" cx="117.924" cy="-18" rx="78.3595" ry="18"/>
<text text-anchor="middle" x="117.924" y="-14.9" font-family="Acme-Regular.ttf" font-size="12.00">absenteeism_level</text>
</g>
<!-- process_type&#45;&gt;absenteeism_level -->
<g id="edge2" class="edge"><title>process_type&#45;&gt;absenteeism_level</title>
<path fill="none" stroke="red" d="M97.8897,-249.735C109.681,-237.819 124.133,-220.544 130.924,-202 153.55,-140.21 149.674,-118.127 134.924,-54 134.257,-51.0992 133.315,-48.1601 132.214,-45.2818"/>
<polygon fill="red" stroke="red" points="135.289,-43.5829 128.021,-35.8743 128.896,-46.433 135.289,-43.5829"/>
<text text-anchor="middle" x="162.924" y="-140" font-family="Acme-Regular.ttf" font-size="10.00">0.0001</text>
</g>
<!-- uses_op -->
<g id="node4" class="node"><title>uses_op</title>
<ellipse fill="pink" stroke="red" cx="81.9238" cy="-184" rx="40.0263" ry="18"/>
<text text-anchor="middle" x="81.9238" y="-180.9" font-family="Acme-Regular.ttf" font-size="12.00">uses_op</text>
</g>
<!-- process_type&#45;&gt;uses_op -->
<g id="edge3" class="edge"><title>process_type&#45;&gt;uses_op</title>
<path fill="none" stroke="red" d="M80.3479,-248.822C80.6104,-238.19 80.9533,-224.306 81.2521,-212.204"/>
<polygon fill="red" stroke="red" points="84.7522,-212.237 81.5003,-202.153 77.7544,-212.064 84.7522,-212.237"/>
<text text-anchor="middle" x="88.9238" y="-223" font-family="Acme-Regular.ttf" font-size="10.00">8.9</text>
</g>
<!-- injury_type&#45;&gt;absenteeism_level -->
<g id="edge4" class="edge"><title>injury_type&#45;&gt;absenteeism_level</title>
<path fill="none" stroke="red" d="M81.455,-83.2167C87.7042,-72.2128 96.0016,-57.6021 103.103,-45.0976"/>
<polygon fill="red" stroke="red" points="106.352,-46.4645 108.247,-36.0404 100.265,-43.0077 106.352,-46.4645"/>
<text text-anchor="middle" x="113.924" y="-57" font-family="Acme-Regular.ttf" font-size="10.00">5.4123</text>
</g>
<!-- uses_op&#45;&gt;process_type -->
<g id="edge6" class="edge"><title>uses_op&#45;&gt;process_type</title>
<path fill="none" stroke="red" d="M69.1206,-201.167C65.4025,-206.802 61.8317,-213.379 59.9238,-220 57.9796,-226.746 59.2437,-233.806 61.8882,-240.313"/>
<polygon fill="red" stroke="red" points="58.85,-242.058 66.5374,-249.348 65.0744,-238.855 58.85,-242.058"/>
<text text-anchor="middle" x="67.9238" y="-223" font-family="Acme-Regular.ttf" font-size="10.00">1.1</text>
</g>
<!-- uses_op&#45;&gt;injury_type -->
<g id="edge5" class="edge"><title>uses_op&#45;&gt;injury_type</title>
<path fill="none" stroke="red" d="M79.803,-165.822C78.4905,-155.19 76.7764,-141.306 75.2823,-129.204"/>
<polygon fill="red" stroke="red" points="78.7405,-128.649 74.0415,-119.153 71.7932,-129.507 78.7405,-128.649"/>
<text text-anchor="middle" x="87.9238" y="-140" font-family="Acme-Regular.ttf" font-size="10.00">9.43</text>
</g>
</g>
</svg>
